# xmcd CD database file
#
# Track frame offsets:
#	187
#	25572
#	52037
#	80774
#	99189
#	117452
#	141414
#	164512
#	206104
#	229407
#	256132
#	293132
#
# Disc length: 4166 seconds
#
# Revision: 3
# Processed by: cddbd v1.4PL0 Copyright (c) Steve Scherf et al.
# Submitted via: CDex 1.51
#
DISCID=ae10440c
DTITLE=Frank Gambale - Passages
DYEAR=1994
DGENRE=Jazz
TTITLE0=Little Chamber
TTITLE1=6.8 Shaker
TTITLE2=Passages
TTITLE3=White Room
TTITLE4=D-Day
TTITLE5=Nunzio's Near
TTITLE6=Free Spirit
TTITLE7=One With Everything
TTITLE8=Roxana
TTITLE9=Uluru
TTITLE10=Another Alternative
TTITLE11=A Whiter Shade Of Pale
EXTD=YEAR: 1994
EXTT0=
EXTT1=
EXTT2=
EXTT3=
EXTT4=
EXTT5=
EXTT6=
EXTT7=
EXTT8=
EXTT9=
EXTT10=
EXTT11=
PLAYORDER=
